<svg preserveAspectRatio="none" width="100%" height="100%" overflow="visible" style="display: block;" viewBox="0 0 18 18" fill="none" xmlns="http://www.w3.org/2000/svg">
<g id="Group">
<path id="Vector" fill-rule="evenodd" clip-rule="evenodd" d="M9 0.1C7.23975 0.1 5.51903 0.621976 4.05543 1.59992C2.59183 2.57787 1.4511 3.96786 0.777476 5.59412C0.103856 7.22038 -0.0723934 9.00987 0.271015 10.7363C0.614424 12.4627 1.46207 14.0486 2.70675 15.2933C3.95144 16.5379 5.53727 17.3856 7.2637 17.729C8.99013 18.0724 10.7796 17.8961 12.4059 17.2225C14.0321 16.5489 15.4221 15.4082 16.4001 13.9446C17.378 12.481 17.9 10.7603 17.9 9C17.8974 6.64039 16.9588 4.37817 15.2903 2.70967C13.6218 1.04117 11.3596 0.102647 9 0.1ZM9 17.3C7.35842 17.3 5.7537 16.8132 4.38877 15.9012C3.02384 14.9892 1.96001 13.6929 1.3318 12.1763C0.703597 10.6596 0.539229 8.99079 0.859486 7.38075C1.17974 5.77071 1.97024 4.29179 3.13102 3.13101C4.29179 1.97024 5.77071 1.17974 7.38075 0.859482C8.9908 0.539225 10.6596 0.703593 12.1763 1.3318C13.6929 1.96001 14.9892 3.02384 15.9012 4.38877C16.8132 5.7537 17.3 7.35842 17.3 9C17.2974 11.2005 16.422 13.3101 14.8661 14.8661C13.3101 16.422 11.2005 17.2974 9 17.3Z" fill="var(--fill-0, white)" stroke="var(--stroke-2, white)" stroke-width="0.2"/>
<path id="Vector_2" fill-rule="evenodd" clip-rule="evenodd" d="M9 1.3C8.92044 1.3 8.84413 1.33161 8.78787 1.38787C8.73161 1.44413 8.7 1.52043 8.7 1.6V2.8C8.7 2.87956 8.73161 2.95587 8.78787 3.01213C8.84413 3.06839 8.92044 3.1 9 3.1C9.07957 3.1 9.15587 3.06839 9.21214 3.01213C9.2684 2.95587 9.3 2.87956 9.3 2.8V1.6C9.3 1.52043 9.2684 1.44413 9.21214 1.38787C9.15587 1.33161 9.07957 1.3 9 1.3ZM9 14.9C8.92044 14.9 8.84413 14.9316 8.78787 14.9879C8.73161 15.0441 8.7 15.1204 8.7 15.2V16.4C8.7 16.4796 8.73161 16.5559 8.78787 16.6121C8.84413 16.6684 8.92044 16.7 9 16.7C9.07957 16.7 9.15587 16.6684 9.21214 16.6121C9.2684 16.5559 9.3 16.4796 9.3 16.4V15.2C9.3 15.1204 9.2684 15.0441 9.21214 14.9879C9.15587 14.9316 9.07957 14.9 9 14.9ZM16.4 8.7H15.2C15.1204 8.7 15.0441 8.73161 14.9879 8.78787C14.9316 8.84413 14.9 8.92043 14.9 9C14.9 9.07956 14.9316 9.15587 14.9879 9.21213C15.0441 9.26839 15.1204 9.3 15.2 9.3H16.4C16.4796 9.3 16.5559 9.26839 16.6121 9.21213C16.6684 9.15587 16.7 9.07956 16.7 9C16.7 8.92043 16.6684 8.84413 16.6121 8.78787C16.5559 8.73161 16.4796 8.7 16.4 8.7ZM2.8 8.7H1.6C1.52044 8.7 1.44413 8.73161 1.38787 8.78787C1.33161 8.84413 1.3 8.92043 1.3 9C1.3 9.07956 1.33161 9.15587 1.38787 9.21213C1.44413 9.26839 1.52044 9.3 1.6 9.3H2.8C2.87957 9.3 2.95587 9.26839 3.01214 9.21213C3.0684 9.15587 3.1 9.07956 3.1 9C3.1 8.92043 3.0684 8.84413 3.01214 8.78787C2.95587 8.73161 2.87957 8.7 2.8 8.7ZM9 4.3C8.92044 4.3 8.84413 4.33161 8.78787 4.38787C8.73161 4.44413 8.7 4.52043 8.7 4.6V9.2C8.7 9.27956 8.73161 9.35587 8.78787 9.41213C8.84413 9.46839 8.92044 9.5 9 9.5C9.07957 9.5 9.15587 9.46839 9.21214 9.41213C9.2684 9.35587 9.3 9.27956 9.3 9.2V4.6C9.3 4.52043 9.2684 4.44413 9.21214 4.38787C9.15587 4.33161 9.07957 4.3 9 4.3Z" fill="var(--fill-0, white)" stroke="var(--stroke-2, white)" stroke-width="0.2"/>
</g>
</svg>
