<svg preserveAspectRatio="none" width="100%" height="100%" overflow="visible" style="display: block;" viewBox="0 0 25.19 25.19" fill="none" xmlns="http://www.w3.org/2000/svg">
<g id="Vector.svg" clip-path="url(#clip0_0_3)">
<path id="Vector" d="M21.3416 0H3.84847C1.72692 0 0 1.72692 0 3.84847V21.3416C0 23.4631 1.72692 25.19 3.84847 25.19H21.3416C23.4631 25.19 25.19 23.4631 25.19 21.3416V3.84847C25.19 1.72692 23.4631 0 21.3416 0ZM20.6845 8.7892L10.8884 18.5853C10.6834 18.7903 10.4147 18.8925 10.1459 18.8925C9.87729 18.8925 9.60858 18.7903 9.40354 18.5853L5.20523 14.387C4.7952 13.9769 4.7952 13.3129 5.20523 12.9029C5.61527 12.4928 6.27931 12.4928 6.68935 12.9029L10.1453 16.3588L19.199 7.3051C19.609 6.89509 20.273 6.89509 20.6831 7.3051C21.0931 7.71511 21.0938 8.37919 20.6845 8.7892Z" fill="url(#paint0_linear_0_3)"/>
</g>
<defs>
<linearGradient id="paint0_linear_0_3" x1="12.595" y1="0" x2="12.595" y2="25.19" gradientUnits="userSpaceOnUse">
<stop stop-color="#C9AC94"/>
<stop offset="1" stop-color="#BD997B"/>
</linearGradient>
<clipPath id="clip0_0_3">
<rect width="25.19" height="25.19" fill="white"/>
</clipPath>
</defs>
</svg>
