<svg preserveAspectRatio="none" width="100%" height="100%" overflow="visible" style="display: block;" viewBox="0 0 86 80.0258" fill="none" xmlns="http://www.w3.org/2000/svg">
<g id="Group_32.svg" clip-path="url(#clip0_0_6)">
<path id="Vector" d="M86 0H0V80.0258H86V0Z" fill="var(--fill-0, #BC9B80)"/>
<path id="Vector_2" d="M18.7366 27.9029L15.9692 40.1453C15.6409 41.74 15.1171 42.8658 14.3978 43.5225C13.6786 44.1791 12.4669 44.4528 10.7626 44.3433V42.045C11.4662 42.0918 11.9978 42.0215 12.3574 41.8339C12.717 41.6462 12.9438 41.271 13.0376 40.7081L13.061 40.5674L9.49618 27.9029H12.0525L13.4597 33.508L14.2571 37.3544L14.8669 33.5315L16.0395 27.9029H18.7366ZM25.7069 44.3199L23.1974 37.7765L22.4 39.2775V44.3199H19.8202V27.9029H22.4V35.056L25.7772 27.9029H28.3571L24.7687 35.2201L28.3571 44.3199H25.7069ZM31.8999 31.6788V40.5439C31.8999 41.6227 32.3455 42.1622 33.2367 42.1622C34.128 42.1622 34.5735 41.6227 34.5735 40.5439V31.6788C34.5735 30.6 34.128 30.0605 33.2367 30.0605C32.3455 30.0605 31.8999 30.6 31.8999 31.6788ZM29.32 40.3798V31.8429C29.32 30.5296 29.6562 29.5133 30.3285 28.794C31.0008 28.0749 31.9702 27.7152 33.2367 27.7152C34.5031 27.7152 35.4726 28.0749 36.1449 28.794C36.8172 29.5133 37.1534 30.5296 37.1534 31.8429V40.3798C37.1534 41.6932 36.8172 42.7095 36.1449 43.4286C35.4726 44.1479 34.5031 44.5074 33.2367 44.5074C31.9702 44.5074 31.0008 44.1479 30.3285 43.4286C29.6562 42.7095 29.32 41.6932 29.32 40.3798ZM38.1029 44.3433V41.998C38.7282 41.998 39.1425 41.9042 39.3458 41.7167C39.5647 41.5134 39.682 41.0442 39.6975 40.3094L40.1198 27.9029H47.4135V44.3199H44.7868V30.2481H42.5354L42.2539 40.1687C42.2071 41.6697 41.8944 42.7407 41.3158 43.3818C40.7373 44.0228 39.7992 44.3433 38.5015 44.3433H38.1029ZM51.757 31.6788V40.5439C51.757 41.6227 52.2026 42.1622 53.0937 42.1622C53.9849 42.1622 54.4305 41.6227 54.4305 40.5439V31.6788C54.4305 30.6 53.9849 30.0605 53.0937 30.0605C52.2026 30.0605 51.757 30.6 51.757 31.6788ZM49.1771 40.3798V31.8429C49.1771 30.5296 49.5132 29.5133 50.1857 28.794C50.858 28.0749 51.8273 27.7152 53.0937 27.7152C54.3602 27.7152 55.3295 28.0749 56.0018 28.794C56.6743 29.5133 57.0104 30.5296 57.0104 31.8429V40.3798C57.0104 41.6932 56.6743 42.7095 56.0018 43.4286C55.3295 44.1479 54.3602 44.5074 53.0937 44.5074C51.8273 44.5074 50.858 44.1479 50.1857 43.4286C49.5132 42.7095 49.1771 41.6932 49.1771 40.3798ZM62.5801 27.9029C63.9091 27.9029 64.8785 28.2156 65.4882 28.841C66.098 29.4508 66.4028 30.3968 66.4028 31.6788V32.2651C66.4028 33.9537 65.8478 35.056 64.7377 35.5719C66.0198 36.0723 66.6608 37.2449 66.6608 39.0898V40.4267C66.6608 41.6932 66.3248 42.6625 65.6523 43.3348C64.9957 43.9916 64.0264 44.3199 62.7443 44.3199H58.6869V27.9029H62.5801ZM62.4159 36.9322H61.2667V41.9745H62.7443C63.1976 41.9745 63.5339 41.8573 63.7527 41.6227C63.9716 41.3727 64.081 40.9504 64.081 40.3564V38.9258C64.081 38.1752 63.9482 37.6592 63.6824 37.3778C63.4322 37.0807 63.0101 36.9322 62.4159 36.9322ZM62.5096 30.2481H61.2667V34.587H62.2751C62.7911 34.587 63.1742 34.454 63.4244 34.1883C63.6902 33.9225 63.8231 33.4768 63.8231 32.8514V31.9367C63.8231 30.8111 63.3853 30.2481 62.5096 30.2481ZM73.9371 27.9029L76.5638 44.3199H73.9606L73.515 41.3414H70.3488L69.9033 44.3199H67.5345L70.1611 27.9029H73.9371ZM71.9202 30.8111L70.6771 39.1133H73.1632L71.9202 30.8111Z" fill="var(--fill-0, white)"/>
<path id="Vector_3" d="M24.9522 49.7488L23.5739 55.6116H23.1396L21.7423 49.7676V55.621H21.3552V49.0124H21.9783L23.3662 54.8563L24.7445 49.0124H25.3676V55.621H24.9522V49.7488ZM31.7393 54.1578H29.6811L29.3507 55.621H28.9542L30.3986 49.0029H31.0311L32.504 55.621H32.0697L31.7393 54.1578ZM30.7007 49.5033L29.7472 53.78H31.6731L30.7007 49.5033ZM37.4656 48.9557C37.9439 48.9557 38.2964 49.1068 38.523 49.4089C38.7559 49.7047 38.8723 50.1044 38.8723 50.6079V50.7496H38.4569V50.5795C38.4569 49.7613 38.1297 49.3522 37.475 49.3522C36.8205 49.3522 36.4932 49.7582 36.4932 50.5701C36.4932 50.7842 36.5372 50.9824 36.6254 51.1649C36.7135 51.3474 36.8268 51.5079 36.9653 51.6464C37.11 51.7785 37.2673 51.9076 37.4374 52.0335C37.6073 52.1531 37.774 52.279 37.9377 52.4111C38.1076 52.537 38.2618 52.6723 38.4003 52.8171C38.5451 52.9618 38.6615 53.1381 38.7496 53.3458C38.8377 53.5535 38.8817 53.78 38.8817 54.0255C38.8817 54.529 38.7653 54.9319 38.5324 55.234C38.2996 55.5297 37.9409 55.6777 37.4561 55.6777C36.9715 55.6777 36.6128 55.5297 36.3799 55.234C36.1471 54.9319 36.0307 54.529 36.0307 54.0255V53.6857H36.4459V54.0538C36.4459 54.8658 36.7795 55.2717 37.4467 55.2717C38.114 55.2717 38.4476 54.8658 38.4476 54.0538C38.4476 53.8399 38.4034 53.6447 38.3153 53.4685C38.2272 53.286 38.1108 53.1287 37.966 52.9964C37.8275 52.8643 37.6733 52.7352 37.5034 52.6094C37.3397 52.4835 37.173 52.3576 37.0031 52.2317C36.8331 52.0996 36.6757 51.9611 36.531 51.8163C36.3924 51.6715 36.2792 51.4954 36.1911 51.2877C36.1031 51.08 36.0589 50.8502 36.0589 50.5984C36.0589 50.0887 36.1753 49.689 36.4083 49.3994C36.6411 49.1099 36.9936 48.9621 37.4656 48.9557ZM44.0566 55.621H43.6223V49.4089H42.2816V49.0124H45.4066V49.4089H44.0566V55.621ZM49.3081 52.0713H51.1114V52.4678H49.3081V55.2245H51.4795V55.621H48.8738V49.0124H51.4795V49.4089H49.3081V52.0713ZM55.1104 49.0124H56.4888C57.4329 49.0124 57.905 49.5096 57.905 50.5041V51.08C57.905 51.8479 57.5871 52.3041 56.9515 52.4489C57.5871 52.5874 57.905 53.0374 57.905 53.7989V54.828C57.905 55.1931 57.9584 55.4574 58.0654 55.621H57.6122C57.5179 55.4574 57.4706 55.1931 57.4706 54.828V53.7895C57.4706 53.374 57.3669 53.0846 57.1592 52.921C56.9515 52.7511 56.643 52.666 56.2339 52.666H55.5447V55.621H55.1104V49.0124ZM55.5447 52.2695H56.2433C56.6587 52.2695 56.9672 52.1909 57.1686 52.0335C57.3699 51.8762 57.4706 51.5867 57.4706 51.1649V50.5419C57.4706 49.7865 57.1403 49.4089 56.4794 49.4089H55.5447V52.2695ZM62.9462 55.621V53.0814L61.464 49.0124H61.9171L63.1822 52.4867L64.4473 49.0124H64.8722L63.3805 53.0814V55.621H62.9462Z" fill="var(--fill-0, white)"/>
</g>
<defs>
<clipPath id="clip0_0_6">
<rect width="86" height="80.0258" fill="white"/>
</clipPath>
</defs>
</svg>
