<svg preserveAspectRatio="none" width="100%" height="100%" overflow="visible" style="display: block;" viewBox="0 0 14.1672 18.3323" fill="none" xmlns="http://www.w3.org/2000/svg">
<path id="Vector" d="M0.21375 8.60954L7.71335 0.276652C7.87335 0.099995 8.09665 0 8.33325 0H13.333C13.4939 0.000175 13.6515 0.046817 13.7866 0.134324C13.9217 0.221832 14.0287 0.346484 14.0947 0.493307C14.228 0.794958 14.1729 1.14661 13.9529 1.38993L6.95505 9.16617L13.9529 16.9407C14.1729 17.1857 14.2297 17.5373 14.0947 17.8373C13.9597 18.139 13.6613 18.3323 13.333 18.3323H8.33325C8.09665 18.3323 7.87335 18.2306 7.71335 18.0573L0.21375 9.72444C-0.07125 9.40783 -0.07125 8.92452 0.21375 8.60954Z" fill="var(--fill-0, white)" fill-opacity="0.15"/>
</svg>
