<svg preserveAspectRatio="none" width="100%" height="100%" overflow="visible" style="display: block;" viewBox="0 0 14.1673 18.3323" fill="none" xmlns="http://www.w3.org/2000/svg">
<path id="Vector" d="M0.213738 8.60954L7.71333 0.276652C7.87332 0.099995 8.09664 0 8.3333 0H13.3331C13.494 0.000175 13.6515 0.046817 13.7866 0.134324C13.9217 0.221832 14.0287 0.346484 14.0947 0.493307C14.228 0.794958 14.173 1.14661 13.953 1.38993L6.95504 9.16617L13.953 16.9407C14.173 17.1857 14.2297 17.5373 14.0947 17.8373C13.9597 18.139 13.6614 18.3323 13.3331 18.3323H8.3333C8.09664 18.3323 7.87332 18.2306 7.71333 18.0573L0.213738 9.72444C-0.0712461 9.40783 -0.0712461 8.92452 0.213738 8.60954Z" fill="var(--fill-0, white)" fill-opacity="0.15"/>
</svg>
